<?xml version="1.0" standalone="no"?>
<!DOCTYPE svg PUBLIC "-//W3C//DTD SVG 20010904//EN"
 "http://www.w3.org/TR/2001/REC-SVG-20010904/DTD/svg10.dtd">
<svg version="1.0" xmlns="http://www.w3.org/2000/svg"
 width="228.000000pt" height="300.000000pt" viewBox="0 0 228.000000 300.000000"
 preserveAspectRatio="xMidYMid meet">
<metadata>
Created by potrace 1.10, written by Peter Selinger 2001-2011
</metadata>
<g transform="translate(0.000000,300.000000) scale(0.100000,-0.100000)"
fill="#000000" stroke="none">
<path d="M1085 2887 c-51 -29 -85 -87 -85 -147 0 -35 8 -58 35 -100 l35 -54 0
-155 0 -155 -182 -183 c-100 -101 -189 -183 -198 -183 -9 0 -84 69 -168 153
-151 153 -152 154 -152 199 0 29 7 54 19 69 52 68 64 133 35 195 -49 103 -186
131 -268 56 -67 -62 -75 -152 -21 -232 31 -47 35 -59 35 -120 0 -88 8 -99 215
-302 92 -90 173 -175 181 -190 17 -33 20 -303 3 -313 -18 -11 -49 26 -55 67
-9 54 -55 121 -97 141 -80 38 -178 8 -223 -69 -64 -109 19 -254 146 -254 l45
0 339 -333 c376 -371 355 -342 351 -484 -2 -61 -6 -75 -38 -122 -57 -83 -48
-163 27 -229 43 -37 72 -46 130 -40 128 15 190 170 110 275 -28 37 -29 42 -29
145 l0 107 163 164 162 163 0 259 0 259 98 98 c84 84 103 98 130 98 105 0 193
112 163 210 -14 46 -52 95 -92 115 -36 19 -112 19 -147 1 -56 -29 -102 -103
-102 -163 0 -40 -128 -168 -158 -159 -23 8 -112 100 -112 116 0 7 51 63 113
127 61 63 117 124 124 136 8 14 12 73 13 169 0 139 1 148 24 175 37 44 47 70
48 121 2 87 -61 160 -146 169 -60 7 -89 -1 -131 -39 -81 -70 -87 -151 -18
-244 21 -28 23 -41 23 -154 l0 -123 -155 -157 c-111 -112 -155 -164 -155 -180
0 -17 41 -65 140 -165 l140 -141 -2 -183 -3 -182 -92 92 c-51 50 -93 96 -94
103 -1 6 0 25 1 43 2 46 -32 116 -73 147 -70 54 -155 45 -222 -24 -31 -32 -39
-48 -43 -88 -2 -27 1 -66 7 -85 16 -47 70 -94 125 -108 36 -9 64 -31 166 -134
97 -97 121 -126 115 -141 -4 -11 -32 -41 -62 -69 l-54 -49 -195 195 -194 195
0 255 1 254 226 230 c124 127 235 244 245 260 16 26 18 53 18 212 l0 183 35
46 c31 40 35 53 35 103 0 48 -5 65 -30 99 -16 23 -43 48 -59 57 -44 22 -118
19 -166 -8z m125 -17 c29 0 86 -63 94 -103 8 -44 -17 -110 -50 -132 l-24 -15
0 -203 0 -202 -245 -245 -245 -245 0 -274 0 -275 216 -214 215 -215 94 93 94
93 -153 153 c-125 126 -155 152 -173 148 -29 -8 -83 25 -105 64 -10 17 -18 50
-18 76 0 127 173 173 240 63 21 -34 26 -92 10 -117 -7 -12 22 -46 133 -157 78
-79 145 -143 149 -143 5 0 8 105 8 232 l0 233 -152 153 -153 153 168 166 167
166 0 138 c0 129 -1 139 -21 149 -30 17 -59 70 -59 111 0 42 34 98 70 116 37
19 101 16 136 -6 21 -13 38 -36 49 -65 17 -44 17 -48 0 -91 -9 -25 -28 -53
-41 -62 -24 -15 -24 -17 -24 -182 l0 -166 -137 -137 -138 -138 95 -95 95 -95
96 96 c95 95 96 97 92 137 -5 48 19 95 62 123 34 22 106 22 139 1 115 -76 64
-247 -74 -247 -43 0 -48 -3 -152 -107 l-108 -108 0 -265 0 -265 -165 -158
-165 -159 0 -128 c0 -124 1 -128 24 -143 13 -9 32 -37 41 -62 17 -43 17 -47 0
-91 -22 -58 -62 -84 -129 -84 -43 0 -53 4 -87 39 -35 35 -39 44 -39 90 0 44 5
56 35 90 l35 38 0 124 0 124 -355 355 -355 355 -54 -3 c-48 -3 -57 -1 -89 28
-67 58 -67 141 -1 199 83 74 214 15 214 -96 0 -35 7 -46 75 -113 l75 -74 0
224 0 225 -205 205 -205 205 0 88 c0 85 -1 89 -29 113 -77 65 -54 187 42 223
39 15 63 14 104 -6 45 -21 73 -67 73 -118 0 -42 -29 -102 -55 -111 -11 -5 -15
-23 -15 -74 l0 -68 180 -179 180 -178 210 206 210 206 0 181 0 180 -35 35
c-30 30 -35 41 -35 84 0 48 16 84 50 110 20 17 72 32 88 27 8 -2 22 -4 32 -4z"/>
<path d="M1962 1654 c-47 -28 -82 -85 -82 -133 0 -23 -17 -50 -75 -116 l-75
-86 0 -236 0 -236 -82 -84 c-69 -70 -89 -84 -121 -88 -106 -14 -182 -111 -163
-207 14 -73 92 -138 164 -138 93 0 164 66 177 163 7 49 13 58 110 158 l103
105 3 247 4 247 42 41 c33 34 51 43 93 50 67 10 115 43 140 95 26 53 25 101
-3 155 -46 86 -150 114 -235 63z m179 -53 c34 -33 39 -45 39 -82 0 -56 -16
-87 -60 -117 -26 -17 -46 -23 -78 -21 -40 3 -46 -1 -102 -56 l-61 -60 1 -244
1 -244 -111 -112 c-105 -106 -112 -114 -105 -143 9 -44 -24 -116 -64 -136 -64
-33 -145 -12 -181 47 -53 87 11 200 113 199 40 0 47 5 140 96 l97 97 0 245 0
246 75 74 c57 57 75 81 74 100 -3 58 3 74 40 111 35 35 44 39 91 39 47 0 56
-4 91 -39z"/>
<path d="M286 1100 c-16 -5 -42 -22 -59 -37 -110 -103 -52 -269 104 -298 28
-5 58 -28 129 -100 86 -86 93 -97 101 -144 15 -94 81 -153 170 -153 119 0 202
125 155 235 -19 46 -78 95 -123 102 -21 3 -47 8 -58 10 -12 2 -60 44 -108 93
-76 79 -87 94 -87 125 0 120 -109 201 -224 167z m121 -50 c49 -29 65 -62 61
-117 l-3 -49 110 -107 c109 -106 110 -107 159 -107 43 0 53 -4 87 -39 35 -34
39 -44 39 -87 0 -61 -25 -105 -73 -127 -44 -21 -70 -21 -114 0 -46 22 -73 67
-73 123 0 44 -2 48 -114 159 -93 93 -117 112 -134 106 -33 -10 -108 28 -126
64 -21 39 -20 110 0 140 41 58 122 77 181 41z"/>
</g>
</svg>
